# xmcd
#
# Track frame offsets:
#	150
#	17552
#	33300
#	47716
#	61517
#	77161
#	90255
#	105006
#	116143
#	136432
#	150636
#	166443
#	178439
#	194969
#	208637
#	224132
#	239918
#	254576
#
# Disc length: 3614 seconds
#
# Revision: 1
# Processed by: cddbd v1.5.2PL0 Copyright (c) Steve Scherf et al.
# Submitted via: audiograbber 1.83.01
#
DISCID=070e1c12
DTITLE=Various Artist - CDX 675
DYEAR=2019
DGENRE=Country
TTITLE0=Tenille Arts - Call You Names
TTITLE1=Blake Shelton - God's Country
TTITLE2=Abby Anderson - Good Lord
TTITLE3=Brandon Ratcliff - Rules Of Breaking Up
TTITLE4=High Valley - Single Man
TTITLE5=Filmore - Slower
TTITLE6=Tony Jackson - Country Road
TTITLE7=Tim Johnson - Beachbound
TTITLE8=Nathan Bartgis - Coming Home
TTITLE9=Thomas Mac - Float
TTITLE10=Sammy Kershaw - Grillin' and Chillin'
TTITLE11=Amy Jack - If Not For Friends
TTITLE12=Wes Cook Band - I Stand For The Flag
TTITLE13=Maddie Wilson - RIP
TTITLE14=Eileen Carey - Meet Me Halfway
TTITLE15=Joe Bateman - The Way I Was Raised
TTITLE16=Marty Rhone - We Had A Good Thing Goin'
TTITLE17=Katlyn Lowe - Wild
EXTD=
EXTT0=
EXTT1=
EXTT2=
EXTT3=
EXTT4=
EXTT5=
EXTT6=
EXTT7=
EXTT8=
EXTT9=
EXTT10=
EXTT11=
EXTT12=
EXTT13=
EXTT14=
EXTT15=
EXTT16=
EXTT17=
PLAYORDER=
